ffmpeg started on 2025-05-12 at 14:33:18
Report written to "D:\Convert\FFMetrics\reports\ssim_report-6.txt"
Log level: 32
Command line:
ffmpeg -hide_banner -nostdin -i "G:\\\xc0\xed\xe8\xec\xe5\\\xce\xed\xe3\xee\xe8\xed\xe3\xe8\\!_35_\xcb\xe5\xf2\xee_2024\\DreamCast\\\xc4\xe8\xf1\xea\xe2\xe0\xeb\xe8\xf4\xe8\xf6\xe8\xf0\xee\xe2\xe0\xed \xef\xee \xe6\xe8\xe7\xed\xe8\\[DC] Isekai Shikkaku - 01_Telegram_HEVC.mkv" -i "G:\\\xc0\xed\xe8\xec\xe5\\\xce\xed\xe3\xee\xe8\xed\xe3\xe8\\!_35_\xcb\xe5\xf2\xee_2024\\DreamCast\\\xc4\xe8\xf1\xea\xe2\xe0\xeb\xe8\xf4\xe8\xf6\xe8\xf0\xee\xe2\xe0\xed \xef\xee \xe6\xe8\xe7\xed\xe8\\[DC] Isekai Shikkaku - 01_Telegram.mp4" -lavfi "[0:v]settb=AVTB,setpts=PTS-STARTPTS,format=pix_fmts=yuv420p10,fps=24000/1001,scale=1920:1080:flags=bicubic[main];[1:v]settb=AVTB,setpts=PTS-STARTPTS,format=pix_fmts=yuv420p,fps=24000/1001,scale=1920:1080:flags=bicubic[ref];[main][ref]ssim=eof_action=endall:stats_file='D\\:/Convert/FFMetrics/logs/ssim_logfile-6.txt'" -f null -
Input #0, matroska,webm, from 'G:\Аниме\Онгоинги\!_35_Лето_2024\DreamCast\Дисквалифицирован по жизни\[DC] Isekai Shikkaku - 01_Telegram_HEVC.mkv':
  Metadata:
    COMPATIBLE_BRANDS: isomiso2avc1mp41
    MAJOR_BRAND     : isom
    MINOR_VERSION   : 512
    ENCODER         : Lavf61.7.100
  Duration: 00:23:46.77, start: -0.021000, bitrate: 1150 kb/s
  Stream #0:0: Video: hevc (Main 10), yuv420p10le(tv, bt709, progressive), 1920x1080 [SAR 1:1 DAR 16:9], 23.98 fps, 23.98 tbr, 1k tbn (default)
      Metadata:
        HANDLER_NAME    : VideoHandler
        VENDOR_ID       : [0][0][0][0]
        ENCODER         : Lavc61.19.100 libx265
        BPS             : 953540
        DURATION        : 00:23:46.675708333
        NUMBER_OF_FRAMES: 34206
        NUMBER_OF_BYTES : 170049040
        _STATISTICS_WRITING_APP: mkvpropedit v66.0.0 ('Josie') 64-bit
        _STATISTICS_WRITING_DATE_UTC: 2025-05-07 09:50:38
        _STATISTICS_TAGS: BPS DURATION NUMBER_OF_FRAMES NUMBER_OF_BYTES
  Stream #0:1: Audio: aac (LC), 48000 Hz, stereo, fltp (default)
      Metadata:
        HANDLER_NAME    : SoundHandler
        VENDOR_ID       : [0][0][0][0]
        ENCODER         : Lavc61.19.100 aac
        BPS             : 193403
        DURATION        : 00:23:46.773000000
        NUMBER_OF_FRAMES: 66881
        NUMBER_OF_BYTES : 34492910
        _STATISTICS_WRITING_APP: mkvpropedit v66.0.0 ('Josie') 64-bit
        _STATISTICS_WRITING_DATE_UTC: 2025-05-07 09:50:38
        _STATISTICS_TAGS: BPS DURATION NUMBER_OF_FRAMES NUMBER_OF_BYTES
Input #1, mov,mp4,m4a,3gp,3g2,mj2, from 'G:\Аниме\Онгоинги\!_35_Лето_2024\DreamCast\Дисквалифицирован по жизни\[DC] Isekai Shikkaku - 01_Telegram.mp4':
  Metadata:
    major_brand     : isom
    minor_version   : 512
    compatible_brands: isomiso2avc1mp41
    encoder         : Lavf61.1.100
  Duration: 00:23:46.74, start: 0.000000, bitrate: 3768 kb/s
  Stream #1:0[0x1](und): Video: h264 (High) (avc1 / 0x31637661), yuv420p(tv, bt709, progressive), 1920x1080 [SAR 1:1 DAR 16:9], 3620 kb/s, 23.98 fps, 23.98 tbr, 24k tbn (default)
      Metadata:
        handler_name    : VideoHandler
        vendor_id       : [0][0][0][0]
        encoder         : Lavc61.3.100 h264_qsv
  Stream #1:1[0x2](und): Audio: aac (HE-AACv2) (mp4a / 0x6134706D), 48000 Hz, stereo, fltp, 144 kb/s (default)
      Metadata:
        handler_name    : SoundHandler
        vendor_id       : [0][0][0][0]
Stream mapping:
  Stream #0:0 (hevc) -> settb:default
  Stream #1:0 (h264) -> settb:default
  ssim:default -> Stream #0:0 (wrapped_avframe)
  Stream #0:1 -> #0:1 (aac (native) -> pcm_s16le (native))
Output #0, null, to 'pipe:':
  Metadata:
    COMPATIBLE_BRANDS: isomiso2avc1mp41
    MAJOR_BRAND     : isom
    MINOR_VERSION   : 512
    encoder         : Lavf61.7.100
  Stream #0:0: Video: wrapped_avframe, yuv420p10le(tv, bt709, progressive), 1920x1080 [SAR 1:1 DAR 16:9], q=2-31, 200 kb/s, 23.98 fps, 23.98 tbn
      Metadata:
        encoder         : Lavc61.19.100 wrapped_avframe
  Stream #0:1: Audio: pcm_s16le, 48000 Hz, stereo, s16, 1536 kb/s (default)
      Metadata:
        HANDLER_NAME    : SoundHandler
        VENDOR_ID       : [0][0][0][0]
        _STATISTICS_TAGS: BPS DURATION NUMBER_OF_FRAMES NUMBER_OF_BYTES
        BPS             : 193403
        DURATION        : 00:23:46.773000000
        NUMBER_OF_FRAMES: 66881
        NUMBER_OF_BYTES : 34492910
        _STATISTICS_WRITING_APP: mkvpropedit v66.0.0 ('Josie') 64-bit
        _STATISTICS_WRITING_DATE_UTC: 2025-05-07 09:50:38
        encoder         : Lavc61.19.100 pcm_s16le
frame=  179 fps=0.0 q=-0.0 size=N/A time=00:00:07.46 bitrate=N/A speed=14.7x    frame=  398 fps=387 q=-0.0 size=N/A time=00:00:16.59 bitrate=N/A speed=16.1x    frame=  600 fps=391 q=-0.0 size=N/A time=00:00:25.02 bitrate=N/A speed=16.3x    frame=  811 fps=394 q=-0.0 size=N/A time=00:00:33.82 bitrate=N/A speed=16.4x    frame= 1023 fps=399 q=-0.0 size=N/A time=00:00:42.66 bitrate=N/A speed=16.6x    frame= 1227 fps=397 q=-0.0 size=N/A time=00:00:51.17 bitrate=N/A speed=16.6x    frame= 1445 fps=401 q=-0.0 size=N/A time=00:01:00.26 bitrate=N/A speed=16.7x    frame= 1664 fps=403 q=-0.0 size=N/A time=00:01:09.40 bitrate=N/A speed=16.8x    frame= 1883 fps=406 q=-0.0 size=N/A time=00:01:18.53 bitrate=N/A speed=  17x    frame= 2113 fps=410 q=-0.0 size=N/A time=00:01:28.12 bitrate=N/A speed=17.1x    frame= 2329 fps=412 q=-0.0 size=N/A time=00:01:37.13 bitrate=N/A speed=17.2x    frame= 2552 fps=413 q=-0.0 size=N/A time=00:01:46.43 bitrate=N/A speed=17.2x    frame= 2780 fps=415 q=-0.0 size=N/A time=00:01:55.94 bitrate=N/A speed=17.3x    frame= 3045 fps=421 q=-0.0 size=N/A time=00:02:07.00 bitrate=N/A speed=17.6x    frame= 3308 fps=427 q=-0.0 size=N/A time=00:02:17.97 bitrate=N/A speed=17.8x    frame= 3563 fps=431 q=-0.0 size=N/A time=00:02:28.60 bitrate=N/A speed=  18x    frame= 3832 fps=437 q=-0.0 size=N/A time=00:02:39.82 bitrate=N/A speed=18.2x    frame= 4098 fps=441 q=-0.0 size=N/A time=00:02:50.92 bitrate=N/A speed=18.4x    frame= 4350 fps=444 q=-0.0 size=N/A time=00:03:01.43 bitrate=N/A speed=18.5x    frame= 4624 fps=448 q=-0.0 size=N/A time=00:03:12.85 bitrate=N/A speed=18.7x    frame= 4880 fps=451 q=-0.0 size=N/A time=00:03:23.53 bitrate=N/A speed=18.8x    frame= 5126 fps=451 q=-0.0 size=N/A time=00:03:33.79 bitrate=N/A speed=18.8x    frame= 5385 fps=454 q=-0.0 size=N/A time=00:03:44.59 bitrate=N/A speed=18.9x    frame= 5601 fps=452 q=-0.0 size=N/A time=00:03:53.60 bitrate=N/A speed=18.9x    frame= 5797 fps=449 q=-0.0 size=N/A time=00:04:01.78 bitrate=N/A speed=18.7x    frame= 5983 fps=446 q=-0.0 size=N/A time=00:04:09.54 bitrate=N/A speed=18.6x    frame= 6253 fps=449 q=-0.0 size=N/A time=00:04:20.80 bitrate=N/A speed=18.7x    frame= 6516 fps=451 q=-0.0 size=N/A time=00:04:31.77 bitrate=N/A speed=18.8x    frame= 6779 fps=453 q=-0.0 size=N/A time=00:04:42.74 bitrate=N/A speed=18.9x    frame= 6994 fps=452 q=-0.0 size=N/A time=00:04:51.70 bitrate=N/A speed=18.8x    frame= 7259 fps=454 q=-0.0 size=N/A time=00:05:02.76 bitrate=N/A speed=18.9x    frame= 7455 fps=452 q=-0.0 size=N/A time=00:05:10.93 bitrate=N/A speed=18.8x    frame= 7670 fps=450 q=-0.0 size=N/A time=00:05:19.90 bitrate=N/A speed=18.8x    frame= 7938 fps=452 q=-0.0 size=N/A time=00:05:31.08 bitrate=N/A speed=18.9x    frame= 8187 fps=454 q=-0.0 size=N/A time=00:05:41.46 bitrate=N/A speed=18.9x    frame= 8446 fps=455 q=-0.0 size=N/A time=00:05:52.26 bitrate=N/A speed=  19x    frame= 8701 fps=456 q=-0.0 size=N/A time=00:06:02.90 bitrate=N/A speed=  19x    frame= 8960 fps=457 q=-0.0 size=N/A time=00:06:13.70 bitrate=N/A speed=19.1x    frame= 9206 fps=458 q=-0.0 size=N/A time=00:06:23.96 bitrate=N/A speed=19.1x    frame= 9444 fps=458 q=-0.0 size=N/A time=00:06:33.89 bitrate=N/A speed=19.1x    frame= 9672 fps=457 q=-0.0 size=N/A time=00:06:43.40 bitrate=N/A speed=19.1x    frame= 9901 fps=457 q=-0.0 size=N/A time=00:06:52.95 bitrate=N/A speed=19.1x    frame=10156 fps=458 q=-0.0 size=N/A time=00:07:03.58 bitrate=N/A speed=19.1x    frame=10408 fps=459 q=-0.0 size=N/A time=00:07:14.10 bitrate=N/A speed=19.1x    frame=10669 fps=460 q=-0.0 size=N/A time=00:07:24.98 bitrate=N/A speed=19.2x    frame=10921 fps=460 q=-0.0 size=N/A time=00:07:35.49 bitrate=N/A speed=19.2x    frame=11151 fps=460 q=-0.0 size=N/A time=00:07:45.08 bitrate=N/A speed=19.2x    frame=11348 fps=458 q=-0.0 size=N/A time=00:07:53.30 bitrate=N/A speed=19.1x    frame=11615 fps=459 q=-0.0 size=N/A time=00:08:04.44 bitrate=N/A speed=19.2x    frame=11846 fps=459 q=-0.0 size=N/A time=00:08:14.07 bitrate=N/A speed=19.2x    frame=12110 fps=460 q=-0.0 size=N/A time=00:08:25.08 bitrate=N/A speed=19.2x    frame=12334 fps=460 q=-0.0 size=N/A time=00:08:34.43 bitrate=N/A speed=19.2x    frame=12603 fps=461 q=-0.0 size=N/A time=00:08:45.65 bitrate=N/A speed=19.2x    frame=12848 fps=461 q=-0.0 size=N/A time=00:08:55.86 bitrate=N/A speed=19.2x    frame=13090 fps=461 q=-0.0 size=N/A time=00:09:05.96 bitrate=N/A speed=19.2x    frame=13360 fps=462 q=-0.0 size=N/A time=00:09:17.22 bitrate=N/A speed=19.3x    frame=13613 fps=463 q=-0.0 size=N/A time=00:09:27.77 bitrate=N/A speed=19.3x    frame=13874 fps=464 q=-0.0 size=N/A time=00:09:38.66 bitrate=N/A speed=19.3x    frame=14135 fps=465 q=-0.0 size=N/A time=00:09:49.54 bitrate=N/A speed=19.4x    frame=14387 fps=465 q=-0.0 size=N/A time=00:10:00.05 bitrate=N/A speed=19.4x    frame=14623 fps=465 q=-0.0 size=N/A time=00:10:09.90 bitrate=N/A speed=19.4x    frame=14837 fps=464 q=-0.0 size=N/A time=00:10:18.82 bitrate=N/A speed=19.3x    frame=15095 fps=465 q=-0.0 size=N/A time=00:10:29.58 bitrate=N/A speed=19.4x    frame=15329 fps=464 q=-0.0 size=N/A time=00:10:39.34 bitrate=N/A speed=19.4x    frame=15557 fps=464 q=-0.0 size=N/A time=00:10:48.85 bitrate=N/A speed=19.4x    frame=15807 fps=464 q=-0.0 size=N/A time=00:10:59.28 bitrate=N/A speed=19.4x    frame=16009 fps=463 q=-0.0 size=N/A time=00:11:07.70 bitrate=N/A speed=19.3x    frame=16269 fps=464 q=-0.0 size=N/A time=00:11:18.55 bitrate=N/A speed=19.3x    frame=16537 fps=465 q=-0.0 size=N/A time=00:11:29.73 bitrate=N/A speed=19.4x    frame=16797 fps=465 q=-0.0 size=N/A time=00:11:40.57 bitrate=N/A speed=19.4x    frame=17023 fps=465 q=-0.0 size=N/A time=00:11:50.00 bitrate=N/A speed=19.4x    frame=17257 fps=465 q=-0.0 size=N/A time=00:11:59.76 bitrate=N/A speed=19.4x    frame=17393 fps=462 q=-0.0 size=N/A time=00:12:05.43 bitrate=N/A speed=19.3x    frame=17632 fps=462 q=-0.0 size=N/A time=00:12:15.40 bitrate=N/A speed=19.3x    frame=17884 fps=462 q=-0.0 size=N/A time=00:12:25.91 bitrate=N/A speed=19.3x    frame=18152 fps=463 q=-0.0 size=N/A time=00:12:37.08 bitrate=N/A speed=19.3x    frame=18400 fps=463 q=-0.0 size=N/A time=00:12:47.43 bitrate=N/A speed=19.3x    frame=18625 fps=463 q=-0.0 size=N/A time=00:12:56.81 bitrate=N/A speed=19.3x    frame=18862 fps=463 q=-0.0 size=N/A time=00:13:06.70 bitrate=N/A speed=19.3x    frame=19056 fps=462 q=-0.0 size=N/A time=00:13:14.79 bitrate=N/A speed=19.3x    frame=19309 fps=462 q=-0.0 size=N/A time=00:13:25.34 bitrate=N/A speed=19.3x    frame=19542 fps=462 q=-0.0 size=N/A time=00:13:35.06 bitrate=N/A speed=19.3x    frame=19779 fps=462 q=-0.0 size=N/A time=00:13:44.94 bitrate=N/A speed=19.3x    frame=20043 fps=463 q=-0.0 size=N/A time=00:13:55.96 bitrate=N/A speed=19.3x    frame=20269 fps=462 q=-0.0 size=N/A time=00:14:05.38 bitrate=N/A speed=19.3x    frame=20531 fps=463 q=-0.0 size=N/A time=00:14:16.31 bitrate=N/A speed=19.3x    frame=20770 fps=463 q=-0.0 size=N/A time=00:14:26.28 bitrate=N/A speed=19.3x    frame=21000 fps=463 q=-0.0 size=N/A time=00:14:35.87 bitrate=N/A speed=19.3x    frame=21205 fps=462 q=-0.0 size=N/A time=00:14:44.42 bitrate=N/A speed=19.3x    frame=21434 fps=462 q=-0.0 size=N/A time=00:14:53.97 bitrate=N/A speed=19.3x    frame=21680 fps=462 q=-0.0 size=N/A time=00:15:04.23 bitrate=N/A speed=19.3x    frame=21923 fps=462 q=-0.0 size=N/A time=00:15:14.37 bitrate=N/A speed=19.3x    frame=22150 fps=462 q=-0.0 size=N/A time=00:15:23.83 bitrate=N/A speed=19.3x    frame=22373 fps=461 q=-0.0 size=N/A time=00:15:33.14 bitrate=N/A speed=19.2x    frame=22634 fps=462 q=-0.0 size=N/A time=00:15:44.02 bitrate=N/A speed=19.3x    frame=22887 fps=462 q=-0.0 size=N/A time=00:15:54.57 bitrate=N/A speed=19.3x    frame=23128 fps=462 q=-0.0 size=N/A time=00:16:04.63 bitrate=N/A speed=19.3x    frame=23404 fps=463 q=-0.0 size=N/A time=00:16:16.14 bitrate=N/A speed=19.3x    frame=23651 fps=463 q=-0.0 size=N/A time=00:16:26.44 bitrate=N/A speed=19.3x    frame=23909 fps=464 q=-0.0 size=N/A time=00:16:37.20 bitrate=N/A speed=19.3x    frame=24152 fps=464 q=-0.0 size=N/A time=00:16:47.33 bitrate=N/A speed=19.3x    frame=24410 fps=464 q=-0.0 size=N/A time=00:16:58.10 bitrate=N/A speed=19.4x    frame=24647 fps=464 q=-0.0 size=N/A time=00:17:07.98 bitrate=N/A speed=19.4x    frame=24915 fps=464 q=-0.0 size=N/A time=00:17:19.16 bitrate=N/A speed=19.4x    frame=25146 fps=464 q=-0.0 size=N/A time=00:17:28.79 bitrate=N/A speed=19.4x    frame=25403 fps=465 q=-0.0 size=N/A time=00:17:39.51 bitrate=N/A speed=19.4x    frame=25622 fps=464 q=-0.0 size=N/A time=00:17:48.65 bitrate=N/A speed=19.4x    frame=25848 fps=464 q=-0.0 size=N/A time=00:17:58.07 bitrate=N/A speed=19.4x    frame=26070 fps=464 q=-0.0 size=N/A time=00:18:07.33 bitrate=N/A speed=19.3x    frame=26301 fps=464 q=-0.0 size=N/A time=00:18:16.97 bitrate=N/A speed=19.3x    frame=26530 fps=463 q=-0.0 size=N/A time=00:18:26.52 bitrate=N/A speed=19.3x    frame=26716 fps=463 q=-0.0 size=N/A time=00:18:34.27 bitrate=N/A speed=19.3x    frame=26909 fps=462 q=-0.0 size=N/A time=00:18:42.32 bitrate=N/A speed=19.3x    frame=27095 fps=461 q=-0.0 size=N/A time=00:18:50.08 bitrate=N/A speed=19.2x    frame=27271 fps=460 q=-0.0 size=N/A time=00:18:57.42 bitrate=N/A speed=19.2x    frame=27477 fps=459 q=-0.0 size=N/A time=00:19:06.01 bitrate=N/A speed=19.2x    frame=27669 fps=459 q=-0.0 size=N/A time=00:19:14.02 bitrate=N/A speed=19.1x    frame=27842 fps=458 q=-0.0 size=N/A time=00:19:21.24 bitrate=N/A speed=19.1x    frame=28039 fps=457 q=-0.0 size=N/A time=00:19:29.45 bitrate=N/A speed=19.1x    frame=28249 fps=457 q=-0.0 size=N/A time=00:19:38.21 bitrate=N/A speed=  19x    frame=28495 fps=457 q=-0.0 size=N/A time=00:19:48.47 bitrate=N/A speed=  19x    frame=28719 fps=457 q=-0.0 size=N/A time=00:19:57.82 bitrate=N/A speed=  19x    frame=28972 fps=457 q=-0.0 size=N/A time=00:20:08.37 bitrate=N/A speed=  19x    frame=29226 fps=457 q=-0.0 size=N/A time=00:20:18.96 bitrate=N/A speed=19.1x    frame=29460 fps=457 q=-0.0 size=N/A time=00:20:28.72 bitrate=N/A speed=19.1x    frame=29641 fps=456 q=-0.0 size=N/A time=00:20:36.27 bitrate=N/A speed=  19x    frame=29872 fps=456 q=-0.0 size=N/A time=00:20:45.91 bitrate=N/A speed=  19x    frame=30056 fps=455 q=-0.0 size=N/A time=00:20:53.58 bitrate=N/A speed=  19x    frame=30244 fps=455 q=-0.0 size=N/A time=00:21:01.42 bitrate=N/A speed=  19x    frame=30449 fps=454 q=-0.0 size=N/A time=00:21:09.97 bitrate=N/A speed=18.9x    frame=30670 fps=454 q=-0.0 size=N/A time=00:21:19.19 bitrate=N/A speed=18.9x    frame=30885 fps=454 q=-0.0 size=N/A time=00:21:28.16 bitrate=N/A speed=18.9x    frame=31125 fps=454 q=-0.0 size=N/A time=00:21:38.17 bitrate=N/A speed=18.9x    frame=31337 fps=454 q=-0.0 size=N/A time=00:21:47.01 bitrate=N/A speed=18.9x    frame=31587 fps=454 q=-0.0 size=N/A time=00:21:57.44 bitrate=N/A speed=18.9x    frame=31836 fps=454 q=-0.0 size=N/A time=00:22:07.82 bitrate=N/A speed=18.9x    frame=32046 fps=454 q=-0.0 size=N/A time=00:22:16.58 bitrate=N/A speed=18.9x    frame=32273 fps=453 q=-0.0 size=N/A time=00:22:26.09 bitrate=N/A speed=18.9x    frame=32504 fps=453 q=-0.0 size=N/A time=00:22:35.68 bitrate=N/A speed=18.9x    frame=32764 fps=454 q=-0.0 size=N/A time=00:22:46.53 bitrate=N/A speed=18.9x    frame=33008 fps=454 q=-0.0 size=N/A time=00:22:56.70 bitrate=N/A speed=18.9x    frame=33252 fps=454 q=-0.0 size=N/A time=00:23:06.88 bitrate=N/A speed=18.9x    frame=33491 fps=454 q=-0.0 size=N/A time=00:23:16.85 bitrate=N/A speed=18.9x    frame=33714 fps=454 q=-0.0 size=N/A time=00:23:26.15 bitrate=N/A speed=18.9x    frame=33877 fps=453 q=-0.0 size=N/A time=00:23:32.95 bitrate=N/A speed=18.9x    frame=34090 fps=453 q=-0.0 size=N/A time=00:23:41.83 bitrate=N/A speed=18.9x    [Parsed_ssim_10 @ 0000024fab4bb440] SSIM Y:0.993854 (22.114056) U:0.990852 (20.386836) V:0.992080 (21.012812) All:0.993058 (21.585177)
[out#0/null @ 0000024fab771440] video:14698KiB audio:267524KiB subtitle:0KiB other streams:0KiB global headers:0KiB muxing overhead: unknown
frame=34206 fps=453 q=-0.0 Lsize=N/A time=00:23:46.67 bitrate=N/A speed=18.9x    
